<svg width="789" height="436" viewBox="0 0 789 436" fill="none" xmlns="http://www.w3.org/2000/svg">
<path d="M760.004 154.821C770.264 175.601 785.17 194.913 788.337 218.165C792.602 245.466 775.838 270.868 751.305 287.779C713.302 313.109 674.878 340.41 635.397 364.594C555.38 413.177 471.563 437.182 373.22 435.355C331.628 434.925 281.38 437.003 251.442 410.597C242.533 401.569 241.097 391.501 247.6 386.306C269.008 371.652 320.692 391.25 348.94 390.462C464.511 398.093 574.803 355.745 659.803 291.075C674.92 279.323 691.767 267.787 705.913 255.785C714.907 248.046 723.859 238.587 726.139 228.376C731.628 199.606 690.585 183.77 681.465 158.905C677.411 148.981 677.664 138.161 678.34 127.735C678.72 119.244 680.198 108.746 673.611 103.157C666.644 98.177 654.947 100.219 645.489 101.222C601.236 109.248 584.6 85.673 554.071 68.798C525.949 54.5385 520.882 89.614 517.926 109.355C515.055 126.839 512.099 144.933 503.738 159.443C488.2 187.64 456.108 190.327 427.944 172.234C399.822 154.176 374.613 130.136 341.298 118.097C296.665 99.2518 256.298 110.824 219.224 138.591C198.154 153.782 179.575 171.195 172.058 192.727C165.218 210.892 169.356 230.382 170.919 248.87C175.057 281.33 152.888 293.798 119.91 303.113C109.101 306.768 97.9955 309.634 91.1972 316.011C81.7387 328.229 108.552 332.851 124.935 335.502C146.555 338.798 170.37 341.987 186.204 353.953C204.657 367.675 191.567 382.401 169.398 384.049C143.387 386.198 115.561 379.678 89.6349 376.489C63.793 372.62 28.9992 368.679 11.3068 355.279C-23.0224 326.831 29.337 292.902 55.39 274.917C81.2741 258.257 101.965 239.16 110.367 212.719C118.686 187.066 123.922 159.765 144.865 138.806C178.646 105.343 225.009 68.9771 275.215 60.8799C359.919 48.0177 432.335 132.787 457.122 104.877C469.198 89.1124 467.425 67.8306 472.998 49.7375C480.81 14.8051 504.878 -12.5317 548.159 5.95561C576.45 17.3131 598.281 41.3179 630.541 40.9238C646.713 41.0671 663.055 35.6212 678.973 34.618C740.285 31.9668 737.878 118.671 759.624 154.069L759.919 154.678L760.004 154.821Z" fill="#00D9D2" fill-opacity="0.5"/>
</svg>
