<svg width="507" height="483" viewBox="0 0 507 483" fill="none" xmlns="http://www.w3.org/2000/svg">
<path d="M340.727 50.3824L340.706 50.3383L340.684 50.2947C325.884 20.7083 296.882 8.21543 265.951 5.63384C235.062 3.05575 201.473 10.2352 175.768 20.7996C150.709 30.7474 140.141 50.6599 132.671 70.6398C130.973 75.1811 129.415 79.7833 127.894 84.2782C127.744 84.7198 127.595 85.1603 127.446 85.5996C125.772 90.5408 124.126 95.3415 122.323 99.9539C118.71 109.196 114.58 117.367 108.734 123.86C101.349 131.984 91.4325 138.393 80.3439 144.418C75.5824 147.005 70.6838 149.481 65.7179 151.991C64.9113 152.399 64.1028 152.807 63.2929 153.217C57.5287 156.136 51.71 159.122 46.1324 162.322C35.01 168.703 24.5095 176.116 16.9151 186.054C9.23031 196.109 4.69468 208.52 5.12967 224.497C5.42924 245.993 9.1363 270.913 18.3888 291.91C27.6523 312.931 42.7672 330.594 66.0865 336.14C104.026 345.234 123.035 364.471 140.071 386.857C143.316 391.122 146.508 395.536 149.759 400.032C163.567 419.125 178.447 439.701 203.036 456.619C244.802 485.591 287.39 483.81 320.575 462.616C353.525 441.572 376.739 401.72 381.125 355.263C382.341 342.393 390.061 333.463 402.019 325.585C410.179 320.209 419.701 315.681 429.866 310.847C434.956 308.427 440.208 305.93 445.531 303.211C461.098 295.259 476.724 285.62 487.534 271.018C498.48 256.234 504.162 236.826 500.761 210.047C496.431 175.382 480.497 153.382 457.439 139.491C434.692 125.787 405.339 120.175 374.401 117.254C362.017 116.085 355.778 106.242 351.51 91.8909C349.764 86.02 348.473 79.8162 347.198 73.6881C346.939 72.4425 346.681 71.2 346.419 69.9641C344.915 62.856 343.275 55.7652 340.727 50.3824Z" stroke="#28FFF8" stroke-width="9"/>
</svg>
