<svg width="84" height="85" viewBox="0 0 84 85" fill="none" xmlns="http://www.w3.org/2000/svg">
<path d="M64.9457 59.1246C64.298 60.0427 63.8096 61.2201 63.3492 62.7644C63.1185 63.5383 62.9109 64.3454 62.6844 65.2319L62.6624 65.3179C62.4475 66.1587 62.2143 67.0715 61.9479 67.9799C60.8326 71.7826 58.9366 76.2271 53.7099 78.8332L53.7025 78.8369C50.2115 80.5672 45.635 81.0984 41.6067 80.3841C37.6494 79.6823 33.1879 77.5426 31.5272 72.8903L31.5236 72.8801L31.52 72.8699C30.0787 68.7523 27.4456 66.9396 23.6832 65.2363C22.9513 64.905 22.1399 64.5693 21.2748 64.2114C17.9019 62.8162 13.7134 61.0835 10.244 57.9547C3.80034 52.5644 2.30625 45.4305 4.68223 39.0172C6.96814 32.8471 12.6556 27.7536 19.7706 25.3506C20.5293 25.0875 21.1221 24.5417 21.7234 23.0262C22.1787 21.8788 22.4597 20.7003 22.8056 19.2494C22.9974 18.4448 23.2092 17.5565 23.4818 16.5433C24.1618 14.015 25.1847 11.0003 27.3736 8.50248C29.667 5.88531 32.9378 4.16374 37.4619 3.65017C43.3337 2.97295 47.8607 4.60109 51.2611 7.94242C54.4547 11.0806 56.3792 15.4732 57.8547 19.7709L57.8601 19.7866C58.109 19.8705 58.592 19.9617 59.4326 19.9822C60.1329 19.9993 60.8216 19.9691 61.6112 19.9346C61.9212 19.921 62.2467 19.9067 62.5946 19.8944C63.6185 19.858 65.0496 19.8247 66.3269 20.1252C72.3035 21.4203 76.1758 26.4868 78.0364 31.353C78.9958 33.8623 79.5218 36.5454 79.5256 39.0793C79.5294 41.5703 79.0253 44.193 77.6311 46.3339L64.9457 59.1246ZM64.9457 59.1246C66.1244 57.5398 67.6293 56.3038 69.6331 54.658C69.8836 54.4523 70.1418 54.2402 70.4082 54.0202C72.7132 52.1166 75.3796 49.7928 77.6302 46.3352L64.9457 59.1246Z" stroke="#28FFF8" stroke-width="7"/>
</svg>
