<svg width="89" height="88" viewBox="0 0 89 88" fill="none" xmlns="http://www.w3.org/2000/svg">
<circle cx="44.9727" cy="44" r="41.5" fill="white" stroke="black" stroke-width="5"/>
<path d="M48.0979 14.0338C54.8089 15.0096 58.004 22.4043 63.5107 25.6596C66.9221 27.7484 71.7167 29.0444 72.7755 33.4774C73.3795 35.9779 72.5556 39.0349 70.8517 40.8836C69.5878 42.2673 67.5522 42.5989 67.2278 40.5177C67.0265 39.2979 67.6156 37.4912 67.5484 36.058C67.5074 33.4164 64.6255 32.3263 62.5003 31.4801C59.5662 30.4204 56.6059 29.2845 53.586 28.2172C51.9045 27.5731 50.2268 26.8717 48.4708 26.4867C44.9811 25.6596 41.2565 26.3266 38.0986 28.0838C37.2598 28.5527 36.4731 29.1015 35.843 29.7495C33.7887 31.3771 33.2034 37.3997 30.2095 36.6412C27.2269 35.3757 27.8309 30.9121 28.6064 28.2858C31.1118 19.9687 39.4147 13.5039 48.0271 14.03L48.0979 14.0376V14.0338Z" fill="black"/>
<path d="M35.9699 70.9957C31.389 70.8428 26.0853 70.0781 22.5158 66.8472C17.9125 62.3966 17.9537 53.9886 21.718 48.8306C22.336 47.8747 22.999 46.915 23.6245 45.9515C25.1302 43.818 26.3475 41.0956 28.8496 41C30.0781 41.0841 30.8385 42.2885 30.6736 43.7682C30.3028 46.3912 28.2315 48.1424 26.6397 50.253C22.7518 54.8106 22.3473 61.6319 28.224 64.4842C34.5316 67.2678 41.7642 66.0633 47.9631 63.5016C51.6413 61.9913 55.3756 60.0871 58.0424 57.1009C60.1849 54.8106 61.4209 51.8551 62.6532 48.9989C64.5897 44.5674 67.6348 45.29 66.8445 50.0427C65.0691 57.036 60.2186 62.9357 53.9073 66.0595C48.319 68.7398 42.1538 71.0378 36.041 70.9995H35.9661L35.9699 70.9957Z" fill="black"/>
<path d="M48.1848 39.1247C49.3038 39.1157 50.5129 39.1217 51.722 39.0497C52.8935 39.0318 55.7323 38.738 55.9727 39.8171C55.8487 40.7103 53.5807 41.3877 51.951 41.7024C50.0285 42.0501 48.1472 42.182 46.5326 41.6005C45.56 41.2828 44.2495 40.1648 45.4586 39.5083C45.9956 39.2266 46.9606 39.1367 48.0984 39.1217H48.1848V39.1247Z" fill="black"/>
<path d="M39.833 42.6635C38.1551 43.5268 36.0334 44.4683 34.2427 43.7389C30.9297 41.6885 34.811 39.6344 37.7658 39.1842C41.3318 38.399 43.9985 40.2335 39.9109 42.6188L39.833 42.6635Z" fill="black"/>
</svg>
