<svg width="128" height="85" viewBox="0 0 128 85" fill="none" xmlns="http://www.w3.org/2000/svg">
<path d="M111.47 60.0614C135.434 26.5558 108.074 8.38209 64.2142 12.1215C56.898 12.7573 58.6151 7.59681 64.6621 6.32539C110.575 -3.39719 146.185 27.0046 117.965 63.1651C111.022 72.065 109.119 63.3521 111.47 60.0614ZM43.6095 78.0481C52.0828 77.6368 46.745 84.0687 39.4662 84.7792C23.1542 86.2749 10.3883 80.1048 1.69109 68.3256C-2.63886 62.4546 2.43764 58.1542 4.78925 61.2206C13.1505 72.7381 28.7906 78.609 43.6095 78.0481ZM41.8552 11.9346C40.9593 10.4388 38.6077 9.91527 38.4957 7.67159C38.4211 6.10103 39.6155 3.89475 41.2206 4.00693C44.1694 4.2313 44.9533 1.53889 47.3796 0.454448C50.5897 -1.15352 53.0906 1.76326 52.792 5.16616C52.6054 7.44723 57.2713 7.6342 56.1142 11.3737C55.3676 13.8043 53.4266 14.0661 51.1496 13.8791C50.0672 13.7295 49.8805 15.5618 49.3953 16.1976C48.0515 18.0673 44.4681 17.6185 43.5349 16.1976C42.5271 14.6644 42.5644 13.1686 41.8552 11.9346ZM53.5386 77.9733C52.2321 77.0385 49.9178 77.5246 48.9473 75.6923C47.8648 73.7104 47.2303 70.4196 49.4699 69.0734C50.2538 68.6247 52.2695 68.5499 52.2695 67.2785C52.2695 64.7357 52.7547 62.5294 55.5542 61.9311C59.8842 60.9962 59.6229 66.2689 62.1612 66.2689C66.0432 66.2689 69.0667 69.3726 67.0137 72.8877C65.5206 75.4679 62.9077 75.7297 62.4225 79.0204C62.1612 80.8153 59.8842 81.6006 58.0925 81.7876C55.5542 82.0867 55.1437 79.1326 53.5386 77.9733Z" fill="black"/>
</svg>
