<svg width="297" height="297" viewBox="0 0 297 297" fill="none" xmlns="http://www.w3.org/2000/svg">
<g filter="url(#filter0_d_5192_590)">
<circle cx="148.759" cy="148.224" r="130.708" transform="rotate(-8.31051 148.759 148.224)" fill="white"/>
<path d="M142.767 57.268C165.16 57.1835 179.058 79.3012 198.579 87.0798C210.706 92.1295 226.984 93.9838 232.516 107.652C235.658 115.359 234.392 125.526 229.686 132.251C226.201 137.278 219.702 139.31 217.669 132.811C216.441 129.007 217.523 122.949 216.634 118.399C215.267 109.973 205.337 107.863 197.995 106.172C187.909 104.185 177.701 101.967 167.331 99.9964C161.534 98.7396 155.722 97.2982 149.802 96.9058C138.008 95.9274 126.145 99.8386 116.643 106.965C114.12 108.864 111.805 110.995 110.048 113.368C104.092 119.553 104.992 139.088 94.8512 138.092C84.5103 135.47 84.4 120.911 85.7084 112.143C90.0138 84.3543 114.136 59.72 142.534 57.2896L142.769 57.2802L142.767 57.268Z" fill="#00D9D2"/>
<path d="M130.978 236.91C116.002 238.599 98.3888 238.683 85.2701 230.081C68.2197 218.083 64.4391 191.263 74.2858 173.034C75.8516 169.693 77.5619 166.319 79.1486 162.95C83.0545 155.434 85.7479 146.178 93.8445 144.685C97.8811 144.369 100.916 147.846 101.069 152.641C101.083 161.178 95.159 167.744 90.9621 175.228C80.4337 191.603 82.2934 213.538 102.743 219.836C124.563 225.711 147.536 218.434 166.513 207.322C177.778 200.76 189.042 192.916 196.329 182.13C202.233 173.812 204.879 163.804 207.559 154.114C211.797 139.068 222.041 139.925 221.683 155.449C219.162 178.583 206.126 199.694 187.045 212.65C170.109 223.85 151.119 234.105 131.212 236.888L130.968 236.924L130.978 236.91Z" fill="#00D9D2"/>
<path d="M127.837 196.479C119.336 197.845 106.452 201.245 100.693 192.925C97.201 186.913 102.861 181.008 109.064 180.525C125.674 179.368 127.29 181.572 142.114 171.428C146.724 168.215 157.15 164.862 157.396 173.365C156.072 184.749 139.226 194.429 128.102 196.415L127.833 196.454L127.837 196.479Z" fill="#00D9D2"/>
<path d="M158.917 127.269C162.544 126.702 166.472 126.153 170.353 125.288C174.145 124.659 183.184 122.119 184.605 126.392C184.733 130.083 177.774 133.912 172.672 135.965C166.639 138.29 160.611 139.718 155.025 138.119C151.68 137.288 146.763 133.364 150.297 130.122C151.873 128.721 154.951 127.898 158.635 127.298L158.916 127.257L158.917 127.269Z" fill="#00D9D2"/>
<path d="M133.837 143.806C128.997 147.401 122.805 151.455 116.85 149.885C105.498 144.685 116.666 136.182 125.701 133.357C136.489 129.154 145.715 133.943 134.059 143.625L133.837 143.806Z" fill="#00D9D2"/>
</g>
<defs>
<filter id="filter0_d_5192_590" x="15.0076" y="17.5" width="267.502" height="267.5" filterUnits="userSpaceOnUse" color-interpolation-filters="sRGB">
<feFlood flood-opacity="0" result="BackgroundImageFix"/>
<feColorMatrix in="SourceAlpha" type="matrix" values="0 0 0 0 0 0 0 0 0 0 0 0 0 0 0 0 0 0 127 0" result="hardAlpha"/>
<feOffset dy="3.02561"/>
<feGaussianBlur stdDeviation="1.51281"/>
<feComposite in2="hardAlpha" operator="out"/>
<feColorMatrix type="matrix" values="0 0 0 0 0 0 0 0 0 0 0 0 0 0 0 0 0 0 0.25 0"/>
<feBlend mode="normal" in2="BackgroundImageFix" result="effect1_dropShadow_5192_590"/>
<feBlend mode="normal" in="SourceGraphic" in2="effect1_dropShadow_5192_590" result="shape"/>
</filter>
</defs>
</svg>
