<svg width="1755" height="998" viewBox="0 0 1755 998" fill="none" xmlns="http://www.w3.org/2000/svg">
<path d="M73.4283 199.579C45.5854 200.23 2.01941 187.87 3.32966 121.52C4.63992 52.5675 49.5162 44.7616 70.4802 44.1111C98.6507 43.7858 135.01 54.519 136.648 113.714C138.613 191.773 100.616 198.929 73.4283 199.579ZM77.3591 147.215C79.652 150.792 85.2206 149.491 84.5655 137.782C83.9103 126.724 84.893 114.039 84.893 96.4759C84.893 86.068 77.6866 86.7185 76.0488 92.573C74.411 97.7769 72.7732 109.161 73.1007 118.593C73.4283 134.855 74.0834 142.336 77.3591 147.215ZM189.058 302.683C163.836 307.236 154.009 296.178 154.664 267.881C155.319 242.512 157.94 221.046 163.508 171.933C169.732 118.593 167.439 85.7428 160.888 52.2423C156.63 30.7759 157.612 21.0185 176.283 16.1398C199.868 9.9601 227.711 17.1155 225.745 38.2566C223.125 64.9269 211.66 115.666 211.005 150.792C210.35 196.327 214.281 227.225 221.815 250.968C230.331 276.988 223.125 296.503 189.058 302.683Z" fill="white" stroke="black" stroke-width="4.598" stroke-linecap="square" stroke-dasharray="3.8 10.12"/>
<path d="M370.15 461.014C350.854 462.968 331.558 445.384 340.227 427.241C349.176 408.819 363.997 414.123 358.404 407.982C352.811 401.841 330.439 420.821 310.024 422.217C289.33 424.171 269.475 415.518 269.475 389.839C269.475 363.044 298.559 352.437 329.6 352.158C367.074 351.879 388.886 355.787 402.03 370.022C412.657 381.745 413.496 395.422 407.344 409.936C401.471 423.892 387.208 430.87 389.725 435.336C391.963 439.243 395.598 433.661 398.954 436.173C402.589 438.685 396.437 458.782 370.15 461.014ZM348.337 533.864C335.752 533.864 326.804 532.748 326.804 526.328C326.804 518.234 332.397 513.768 327.642 511.256C322.049 508.465 287.652 516.28 277.585 517.676C245.425 522.141 233.679 514.326 231.722 493.95C228.645 461.014 239.832 468.551 255.492 469.109C267.237 469.667 309.745 474.691 344.981 473.296C386.649 471.621 420.767 468.272 434.47 466.597C457.122 464.085 470.545 476.924 460.478 502.045C455.164 515.443 434.47 517.955 416.572 516.559C397.276 515.163 375.743 509.86 369.59 512.372C364.836 514.326 369.031 521.025 370.429 525.212C372.387 531.073 362.04 533.864 348.337 533.864ZM391.683 636.301C369.311 636.301 362.04 624.857 366.235 613.413C368.751 606.714 378.819 605.598 378.819 601.132C378.819 588.851 340.786 612.297 302.474 613.692C278.144 614.53 261.644 594.991 265.839 574.057C272.271 542.238 314.219 546.704 345.261 548.379C381.336 550.332 400.911 555.077 410.979 563.172C417.131 568.196 422.724 577.686 419.089 590.525C415.453 603.365 408.182 607.552 410.979 610.901C413.216 613.692 416.013 612.576 419.089 614.53C422.165 616.483 412.377 636.301 391.683 636.301Z" fill="white" stroke="black" stroke-width="4.598" stroke-linecap="square" stroke-dasharray="3.8 10.12"/>
<path d="M72.1547 501.983C48.4078 502.545 11.2509 491.858 12.3684 434.485C13.4859 374.862 51.7603 368.113 69.6403 367.55C93.6665 367.269 124.677 376.55 126.074 427.735C127.75 495.233 95.3428 501.42 72.1547 501.983ZM75.5072 456.703C77.4628 459.797 82.2122 458.672 81.6534 448.547C81.0947 438.985 81.9328 428.017 81.9328 412.83C81.9328 403.83 75.7865 404.393 74.3897 409.455C72.9928 413.955 71.5959 423.798 71.8753 431.954C72.1547 446.016 72.7134 452.484 75.5072 456.703ZM183.346 538.825C165.187 540.794 160.437 532.919 161.275 517.451C162.113 503.951 169.657 481.171 168.26 478.077C166.304 473.859 153.732 479.483 147.586 480.89C136.411 483.421 130.823 470.484 132.5 455.016C135.573 428.86 169.377 448.828 170.774 436.173C171.892 426.329 156.526 430.267 147.865 432.235C139.205 434.204 126.353 424.361 132.779 404.674C139.763 383.018 164.907 404.674 167.98 395.955C170.495 388.924 165.745 384.425 162.672 366.706C160.158 351.801 166.583 346.457 184.463 345.051C212.96 342.801 220.782 354.894 217.709 371.206C212.401 399.049 207.652 422.392 205.975 449.391C204.578 470.765 208.21 490.17 211.842 509.013C214.636 523.638 204.858 536.575 183.346 538.825ZM125.795 644.571C81.9328 644.571 57.9065 622.915 57.9065 587.76C57.9065 538.544 100.372 535.731 124.957 536.575C150.938 537.419 191.727 538.262 191.727 591.417C191.727 625.728 168.26 644.571 125.795 644.571ZM124.957 586.073C141.44 586.354 151.777 586.073 155.408 581.854C159.599 576.792 155.688 574.542 144.233 574.823C133.617 575.105 121.045 575.105 103.724 573.417C93.3872 572.574 92.8284 579.605 98.6953 582.698C103.724 584.386 114.899 586.073 124.957 586.073Z" fill="white" stroke="black" stroke-width="4.598" stroke-linecap="square" stroke-dasharray="3.8 10.12"/>
<path d="M836.578 121.096C775.017 122.176 770.967 81.9433 770.967 65.7423C770.967 43.8709 782.037 16.8691 831.178 15.7891C888.149 14.439 896.789 50.0813 896.789 66.0123C896.789 87.3437 888.419 120.286 836.578 121.096ZM832.528 84.1035C845.218 84.1035 851.158 83.2934 856.018 80.3232C858.718 78.7031 861.419 72.7627 848.998 74.6529C840.898 75.1929 829.828 75.7329 816.868 74.6529C809.038 73.5728 808.768 79.5132 813.088 81.4033C816.868 82.4834 825.508 84.1035 832.528 84.1035ZM951.6 268.255C930.81 272.036 922.71 262.855 923.25 239.363L923.52 195.621C907.859 207.231 875.459 195.621 849.538 195.081C821.188 194.541 786.087 194.811 769.887 196.971C738.836 201.291 727.766 198.591 725.606 169.159C723.176 137.297 738.836 144.587 748.557 145.127C759.897 145.667 792.837 150.528 832.258 150.798C871.409 151.068 890.579 147.018 905.159 146.477C913.799 146.207 920.82 147.018 925.95 149.718L927.03 138.107C932.16 93.8241 930.27 66.5524 924.87 38.7406C921.36 20.9194 925.68 12.8189 941.07 8.76863C960.51 3.6383 983.461 9.57867 981.841 27.1298C979.681 49.2712 970.231 91.3939 969.691 120.556C969.151 158.358 972.391 205.611 978.601 225.323C985.621 246.924 979.681 263.125 951.6 268.255Z" fill="white" stroke="black" stroke-width="4.598" stroke-linecap="square" stroke-dasharray="3.8 10.12"/>
<path d="M643.522 121.538C577.241 122.706 572.881 79.1935 572.881 61.6716C572.881 38.0171 584.8 8.81395 637.708 7.64582C699.047 6.18566 708.35 44.7338 708.35 61.9637C708.35 85.0342 699.338 120.662 643.522 121.538ZM639.162 81.5298C652.825 81.5298 659.221 80.6537 664.453 77.4413C667.36 75.6892 670.267 69.2645 656.895 71.3087C648.174 71.8927 636.255 72.4768 622.301 71.3087C613.87 70.1406 613.58 76.5652 618.231 78.6095C622.301 79.7776 631.604 81.5298 639.162 81.5298ZM639.453 201.555C626.371 201.555 617.068 200.387 617.068 193.67C617.068 185.201 622.882 180.528 617.94 177.9C612.126 174.98 576.369 183.157 565.904 184.617C532.473 189.289 520.263 181.113 518.228 159.794C515.03 125.334 526.659 133.219 542.938 133.803C555.148 134.387 599.335 139.644 635.964 138.184C679.279 136.432 714.746 132.927 728.99 131.175C752.537 128.547 766.491 141.98 756.026 168.263C750.502 182.281 728.99 184.909 710.385 183.449C690.326 181.989 667.942 176.44 661.546 179.068C656.604 181.113 660.965 188.121 662.418 192.502C664.453 198.634 653.697 201.555 639.453 201.555ZM603.405 310.774C570.846 308.438 559.508 291.5 560.962 272.226C562.125 256.457 572.299 244.191 571.137 235.722C569.974 226.669 567.939 226.085 565.904 221.705C563.288 215.864 563.578 209.732 569.102 206.811C574.916 203.599 598.172 201.555 609.51 208.271C619.685 214.404 620.557 219.077 615.905 226.961C611.254 236.598 609.51 239.811 614.452 246.236C619.685 252.952 638.871 255.288 652.825 252.952C688.001 246.82 705.443 237.183 717.653 237.767C729.281 238.351 733.351 275.439 723.757 290.624C708.641 314.571 634.22 313.111 603.405 310.774Z" fill="white" stroke="black" stroke-width="4.598" stroke-linecap="square" stroke-dasharray="3.8 10.12"/>
<path d="M361.362 167.193C308.654 167.193 293.515 132.549 306.131 110.757C313.701 97.6254 331.644 97.6254 333.606 93.7139C338.372 84.2148 313.701 95.3903 307.252 92.317C297.44 87.5674 297.159 53.4822 304.729 46.4975C310.897 40.9098 334.447 47.3357 360.801 47.3357C406.78 47.3357 418.275 38.954 418.275 67.7309C418.275 79.4652 416.873 92.317 407.622 93.4345C397.529 94.5521 383.23 85.6117 383.23 92.317C383.23 99.5811 406.5 97.346 413.509 111.036C426.406 136.181 407.902 167.193 361.362 167.193ZM361.082 125.285C368.932 125.285 374.259 124.726 378.464 122.211C381.268 120.535 382.109 116.624 371.455 116.624C363.324 116.624 358.278 117.741 345.381 116.344C338.372 115.786 337.812 120.535 342.297 122.77C345.381 124.447 353.512 125.285 361.082 125.285ZM377.343 36.7189C365.567 41.7479 352.39 41.4685 339.494 35.6014C328.84 31.1312 322.392 18.2794 329.961 8.7802C337.531 -0.998343 348.185 4.58941 360.521 4.58941C370.894 4.58941 379.866 -0.439576 386.875 8.7802C394.445 18.8381 386.034 33.0869 377.343 36.7189ZM457.806 199.043C430.05 202.954 418.275 194.014 432.574 150.15C438.742 130.872 438.461 106.007 432.854 68.0103C429.77 46.2181 424.163 27.2198 449.956 25.2641C471.824 23.5877 482.758 30.0136 480.235 44.8212C476.59 65.2164 469.021 87.8468 477.712 87.8468C487.244 87.8468 485.842 65.4958 485.562 52.9234C485.001 40.351 474.908 21.632 510.514 23.5877C545.279 25.5434 526.214 64.0989 523.691 81.9797C521.448 97.0666 521.729 123.888 528.457 154.062C531.822 169.149 534.625 194.573 512.757 197.367C478.273 201.557 481.357 183.956 482.478 158.252C483.88 132.549 483.88 126.961 478.553 126.682C468.74 126.123 473.506 146.239 475.189 157.414C477.992 176.971 477.712 196.249 457.806 199.043ZM422.2 317.503C378.184 317.503 354.073 295.99 354.073 261.067C354.073 212.174 396.687 209.38 421.359 210.218C447.433 211.057 488.366 211.895 488.366 264.699C488.366 298.784 464.815 317.503 422.2 317.503ZM421.359 259.391C437.901 259.67 448.274 259.391 451.919 255.2C456.124 250.171 452.199 247.936 440.704 248.215C430.05 248.494 417.434 248.494 400.052 246.818C389.678 245.98 389.118 252.965 395.005 256.038C400.052 257.714 411.266 259.391 421.359 259.391Z" fill="white" stroke="black" stroke-width="4.598" stroke-linecap="square" stroke-dasharray="3.8 10.12"/>
<path d="M1609.49 112.693C1581.45 111.37 1566.37 93.6336 1569.01 72.1916C1570.86 57.6322 1583.83 41.7492 1579.86 32.4842C1576.15 24.0132 1574.3 17.3953 1583.56 15.2776C1596.26 12.3657 1605.52 12.8951 1618.22 15.0129C1628.54 16.8659 1629.59 24.8074 1625.63 30.8959C1620.07 39.3668 1611.61 56.8381 1618.48 64.7795C1624.04 71.1327 1642.03 70.868 1660.55 61.6029C1672.19 55.7792 1675.1 50.7496 1681.18 53.3967C1687.53 56.0439 1692.03 83.045 1684.09 96.5455C1674.3 113.223 1638.06 114.017 1609.49 112.693ZM1696.26 172.519C1678.01 171.725 1652.88 169.078 1633.3 169.342C1613.99 169.342 1594.67 167.489 1560.02 173.049C1529.59 177.813 1519.54 174.637 1516.1 147.371C1512.66 120.635 1528.53 127.253 1538.06 127.517C1549.17 128.047 1589.65 131.753 1628.27 131.223C1667.69 130.959 1704.99 126.458 1717.96 124.605C1739.39 121.694 1749.17 130.429 1742.56 155.048C1737.8 172.254 1718.49 173.313 1696.26 172.519ZM1597.85 283.435C1568.22 281.318 1557.9 265.964 1559.22 248.493C1560.28 234.198 1569.54 223.08 1568.48 215.403C1567.42 207.197 1565.57 206.667 1563.72 202.697C1561.34 197.402 1561.6 191.843 1566.63 189.196C1571.92 186.284 1593.09 184.431 1603.4 190.52C1612.66 196.079 1613.46 200.314 1609.22 207.462C1604.99 216.197 1603.4 219.109 1607.9 224.933C1612.66 231.021 1630.12 233.139 1642.82 231.021C1674.83 225.462 1690.71 216.727 1701.82 217.256C1712.4 217.786 1716.1 251.405 1707.37 265.17C1693.62 286.877 1625.89 285.553 1597.85 283.435Z" fill="white" stroke="black" stroke-width="4.598" stroke-linecap="square" stroke-dasharray="3.8 10.12"/>
<path d="M1403.24 159.159C1391.99 159.74 1388.54 153.647 1388.54 138.559C1388.54 124.052 1386.81 106.063 1382.19 106.063C1377 106.063 1378.45 108.384 1379.02 117.379C1380.18 132.176 1372.39 151.616 1356.83 157.128C1337.51 164.092 1300.62 157.128 1295.43 138.269C1288.8 114.477 1316.47 102.001 1324.54 97.6492C1332.04 93.5873 1341.84 89.2351 1341.84 83.7225C1341.84 75.0182 1321.08 81.1112 1308.97 74.1478C1299.75 68.9252 1301.19 52.9675 1308.11 43.3928C1315.03 33.8181 1331.46 38.4604 1357.69 39.0407C1379.31 39.621 1399.78 37.59 1409.58 37.59C1417.07 37.59 1423.7 51.8069 1419.96 66.0238C1417.07 76.759 1400.93 78.4999 1405.83 86.6239C1410.15 93.5872 1452.82 87.7844 1446.76 121.151C1441.58 150.165 1415.06 158.579 1403.24 159.159ZM1483.66 269.703C1461.47 273.765 1452.82 263.9 1453.39 238.658C1453.97 216.027 1456.28 196.878 1461.18 153.066C1466.65 105.483 1464.64 76.1788 1458.87 46.2942C1455.12 27.1449 1455.99 18.4406 1472.42 14.0885C1493.17 8.57584 1517.68 14.9589 1515.95 33.8181C1513.64 57.6097 1503.55 102.872 1502.98 134.207C1502.4 174.827 1505.86 202.39 1512.49 223.571C1519.98 246.782 1513.64 264.19 1483.66 269.703Z" fill="white" stroke="black" stroke-width="4.598" stroke-linecap="square" stroke-dasharray="3.8 10.12"/>
<path d="M1130.48 152.464C1100.44 152.199 1083.05 153.259 1077.51 144.518C1070.66 134.452 1070.93 113.262 1079.1 110.878C1088.06 108.229 1091.22 110.348 1094.38 108.494C1098.86 105.845 1093.59 92.8657 1109.93 92.0711C1134.17 90.7467 1119.68 110.878 1127.58 110.878C1141.02 110.878 1139.7 77.2377 1116.25 82.8002C1092.53 88.3627 1077.51 82.2705 1073.83 66.3776C1069.35 46.5114 1071.45 39.8894 1081.47 39.0948C1098.07 37.7703 1106.24 38.3001 1127.32 38.8299C1151.04 39.3596 1158.41 38.8299 1171.33 39.8894C1181.87 40.684 1188.19 46.5114 1185.56 64.7883C1183.71 76.9728 1182.39 83.33 1173.17 83.5949C1158.68 83.8598 1160.79 88.6276 1160.52 95.2497C1159.99 108.494 1169.22 113.262 1181.87 109.818C1191.09 107.434 1189.77 132.598 1185.56 139.485C1176.6 154.053 1155.78 152.729 1130.48 152.464ZM1242.74 199.613C1225.61 201.467 1221.13 194.051 1221.92 179.482C1222.71 166.768 1229.83 145.312 1228.51 142.399C1226.66 138.425 1214.81 143.723 1209.01 145.047C1198.47 147.431 1193.2 135.247 1194.78 120.678C1197.68 96.0443 1229.56 114.851 1230.88 102.931C1231.93 93.6604 1217.44 97.3687 1209.27 99.2229C1201.1 101.077 1188.98 91.8062 1195.04 73.2645C1201.63 52.8686 1225.35 73.2645 1228.25 65.0532C1230.62 58.4311 1226.14 54.193 1223.24 37.5055C1220.87 23.4667 1226.93 18.434 1243.79 17.1096C1270.67 14.9905 1278.05 26.3804 1275.15 41.7436C1270.14 67.9669 1265.66 89.952 1264.08 115.381C1262.77 135.512 1266.19 153.788 1269.62 171.536C1272.25 185.309 1263.03 197.494 1242.74 199.613ZM1163.42 292.322C1134.17 286.494 1123.37 267.688 1124.95 255.238C1126.79 240.14 1134.17 231.929 1134.17 224.247C1134.17 216.036 1132.85 212.592 1130.48 208.619C1128.37 204.911 1128.37 200.673 1133.38 198.024C1138.65 195.11 1159.47 193.521 1169.75 199.613C1178.97 205.176 1179.76 209.414 1175.54 216.565C1171.33 225.307 1170.01 234.577 1174.49 240.405C1179.23 246.497 1193.99 248.086 1206.9 245.173C1230.09 239.875 1247.48 225.571 1255.91 225.836C1263.29 226.101 1269.62 262.39 1258.02 277.488C1244.58 295.235 1187.4 297.089 1163.42 292.322Z" fill="white" stroke="black" stroke-width="4.598" stroke-linecap="square" stroke-dasharray="3.8 10.12"/>
<path d="M859.126 521.81C840.724 522.341 831.523 510.665 830.998 495.274C830.209 474.84 842.827 453.08 828.894 453.08C812.07 453.08 832.838 514.115 806.55 518.891C772.113 524.729 753.711 485.986 770.01 460.51C778.947 446.711 795.246 427.604 795.246 418.317C795.246 408.233 787.622 404.517 795.246 397.087C800.504 392.31 836.781 392.31 848.348 396.291C858.337 399.21 862.017 405.313 863.857 417.52C866.749 433.443 864.12 443.261 874.373 450.957C883.836 457.857 890.145 455.468 895.14 456.53C899.872 457.857 898.295 471.921 896.717 483.597C895.14 496.866 887.254 521.28 859.126 521.81ZM954.814 609.913C931.417 611.505 931.68 591.072 935.623 565.596C938.515 547.286 941.932 518.626 943.51 503.765C945.876 482.27 936.675 491.824 925.897 491.558C915.645 491.293 912.753 482.536 912.227 470.86C911.439 454.937 920.376 448.834 925.634 449.365C932.206 450.161 934.572 453.611 940.618 452.018C947.716 450.161 941.932 427.339 938.515 397.087C936.675 381.696 943.51 374 961.123 374C983.204 374 990.828 380.103 988.988 405.579C987.673 425.482 981.101 454.937 981.101 482.801C981.101 504.031 982.416 537.998 990.302 566.127C997.137 590.276 982.942 608.055 954.814 609.913Z" fill="white" stroke="black" stroke-width="4.598" stroke-linecap="square" stroke-dasharray="3.8 10.12"/>
<path d="M539.679 528.672C517.176 529.196 481.964 519.233 483.023 465.747C484.082 410.164 520.353 403.871 537.296 403.347C560.065 403.085 589.451 411.737 590.775 459.455C592.364 522.379 561.653 528.147 539.679 528.672ZM542.856 486.46C544.709 489.344 549.21 488.295 548.681 478.857C548.151 469.942 548.945 459.717 548.945 445.559C548.945 437.169 543.121 437.693 541.797 442.413C540.473 446.608 539.15 455.784 539.414 463.388C539.679 476.497 540.209 482.527 542.856 486.46ZM646.107 606.541C622.28 608.639 622.81 587.926 626.781 562.756C629.693 544.665 633.135 522.642 634.723 507.959C637.106 486.722 627.84 496.161 616.985 495.899C606.66 495.636 604.277 486.984 603.218 475.448C601.63 457.882 610.631 451.851 615.926 452.376C622.545 453.162 624.928 456.571 631.017 454.998C638.165 453.162 633.135 432.45 629.693 402.56C627.84 387.354 634.723 379.75 652.461 379.75C674.7 379.75 682.378 385.781 680.524 410.95C679.201 430.614 672.582 462.339 672.582 487.246C672.582 500.356 670.993 538.897 678.936 567.213C685.555 591.072 670.729 604.444 646.107 606.541ZM709.382 607.852C682.113 609.949 687.143 589.499 688.732 562.756C689.79 544.141 690.849 507.173 690.055 474.137C689.526 451.065 687.673 424.322 686.614 402.298C685.819 386.043 686.084 375.555 707.529 375.031C734.268 374.507 742.475 380.537 739.298 401.512C736.386 420.127 729.238 462.077 730.297 495.112C731.091 518.709 734.797 542.568 740.357 564.854C746.711 590.286 734.268 606.017 709.382 607.852Z" fill="white" stroke="black" stroke-width="4.598" stroke-linecap="square" stroke-dasharray="3.8 10.12"/>
<path d="M1648.98 503.8C1605.51 508.182 1583.22 502.705 1581.02 481.889C1579.09 463.813 1600.28 457.513 1612.39 454.774C1624.49 451.762 1645.95 449.023 1641.28 441.08C1633.3 427.66 1613.21 452.036 1593.12 451.488C1580.47 451.214 1570.56 445.188 1568.36 428.755C1564.78 402.188 1592.57 395.615 1618.16 394.793C1641.55 393.971 1665.49 395.615 1678.15 405.749C1692.18 416.978 1690.81 441.354 1683.1 452.857C1675.4 464.36 1647.06 463.813 1653.66 475.316C1655.86 479.15 1666.59 476.411 1671.82 473.399C1677.87 469.838 1683.1 465.73 1685.58 473.399C1688.33 481.889 1685.3 500.24 1648.98 503.8ZM1544.14 590.896C1527.08 591.718 1524.88 577.202 1523.51 564.603C1520.21 533.928 1529.29 535.297 1571.94 541.871C1592.02 544.883 1618.71 547.896 1613.49 535.297C1610.73 528.998 1610.73 519.412 1633.85 519.686C1665.49 520.233 1653.11 535.297 1653.11 538.584C1653.11 545.979 1692.18 548.17 1716.67 540.501C1750.24 530.093 1754.37 556.934 1751.07 571.998C1749.42 579.119 1748.32 593.361 1724.65 591.992C1706.77 590.896 1654.48 585.145 1637.7 584.871C1616.51 584.597 1575.79 589.253 1544.14 590.896Z" fill="white" stroke="black" stroke-width="4.56583" stroke-linecap="square" stroke-dasharray="3.96 10.54"/>
<path d="M1446.8 505.636C1437.17 505.911 1433.87 499.582 1434.14 487.474C1434.42 475.092 1434.97 459.682 1428.92 459.407C1424.24 459.132 1425.34 461.608 1425.34 469.313C1425.61 486.098 1419.29 497.931 1406.08 502.609C1389.29 508.662 1359.3 503.985 1354.35 485.823C1349.67 468.763 1369.21 459.682 1376.09 456.105C1382.69 452.528 1392.87 449.501 1392.87 444.548C1392.87 438.219 1374.71 440.97 1364.53 432.715C1357.1 426.937 1359.58 412.077 1364.53 404.648C1371.13 394.467 1396.45 403.822 1416.81 404.373C1435.25 404.923 1456.16 401.071 1463.04 401.071C1471.57 401.071 1473.49 420.057 1469.09 428.037C1464.96 436.017 1448.73 434.917 1450.38 440.97C1452.03 448.125 1490 443.997 1484.77 472.615C1480.1 497.38 1462.21 505.085 1446.8 505.636ZM1438.27 395.292C1426.72 400.245 1413.78 399.97 1401.13 394.191C1390.67 389.789 1384.34 377.131 1391.77 367.775C1399.2 358.144 1409.66 363.647 1421.76 363.647C1431.94 363.647 1440.75 358.694 1447.63 367.775C1455.06 377.681 1446.8 391.715 1438.27 395.292ZM1333.16 594.791C1316.1 595.616 1313.9 581.032 1312.52 568.374C1309.22 537.555 1318.3 538.931 1360.95 545.535C1381.04 548.562 1407.73 551.589 1402.5 538.931C1399.75 532.602 1399.75 522.971 1422.86 523.246C1454.51 523.797 1442.12 538.931 1442.12 542.233C1442.12 549.663 1481.2 551.864 1505.69 544.159C1539.26 533.703 1543.38 560.67 1540.08 575.804C1538.43 582.959 1537.33 597.267 1513.67 595.892C1495.78 594.791 1443.5 589.012 1426.72 588.737C1405.53 588.462 1364.8 593.14 1333.16 594.791Z" fill="white" stroke="black" stroke-width="4.56583" stroke-linecap="square" stroke-dasharray="3.96 10.54"/>
<path d="M1202.39 502.172C1193.08 502.436 1189.89 496.358 1190.16 484.731C1190.42 472.84 1190.96 458.042 1185.11 457.778C1180.59 457.514 1181.65 459.892 1181.65 467.291C1181.91 483.41 1175.8 494.773 1163.03 499.265C1146.81 505.079 1117.83 500.586 1113.04 483.146C1108.52 466.762 1127.4 458.042 1134.05 454.607C1140.43 451.172 1150.27 448.265 1150.27 443.509C1150.27 437.431 1132.72 440.073 1122.88 432.146C1115.7 426.597 1118.09 412.327 1122.88 405.193C1129.26 395.415 1153.73 404.4 1173.41 404.928C1191.22 405.457 1211.43 401.757 1218.08 401.757C1226.32 401.757 1228.19 419.991 1223.93 427.654C1219.94 435.317 1204.25 434.26 1205.85 440.073C1207.44 446.944 1244.14 442.98 1239.09 470.462C1234.57 494.244 1217.28 501.643 1202.39 502.172ZM1194.15 396.208C1182.98 400.965 1170.48 400.7 1158.25 395.151C1148.14 390.923 1142.03 378.768 1149.21 369.783C1156.39 360.535 1166.49 365.82 1178.19 365.82C1188.03 365.82 1196.54 361.063 1203.19 369.783C1210.37 379.296 1202.39 392.773 1194.15 396.208ZM1235.9 580.653C1217.55 579.332 1201.33 573.783 1182.71 573.255C1154.79 572.462 1157.72 572.726 1122.88 577.482C1092.3 581.71 1081.66 579.068 1079.27 550.265C1076.88 521.726 1092.3 528.861 1101.87 529.389C1111.98 529.918 1152.93 537.845 1155.59 532.032C1158.78 525.161 1153.73 524.897 1153.73 518.555C1153.73 512.213 1164.9 507.721 1178.19 507.457C1186.7 507.192 1199.73 510.099 1200 517.498C1200.26 525.69 1192.02 529.654 1196.27 534.939C1200.8 540.488 1231.38 531.503 1248.13 530.182C1258.77 529.389 1266.48 531.503 1270.73 536.788L1272.86 518.027C1277.91 474.69 1276.05 448.001 1270.73 420.783C1267.28 403.343 1268.07 395.415 1283.23 391.452C1302.38 386.431 1324.98 392.244 1323.39 409.421C1321.26 431.089 1311.95 472.312 1311.42 500.851C1310.89 537.845 1314.08 562.949 1320.2 582.239C1327.11 603.379 1321.26 619.234 1293.6 624.254C1273.13 627.954 1265.15 618.969 1265.68 595.98C1265.95 588.052 1266.21 580.918 1267.01 572.462C1260.1 580.653 1248.93 581.71 1235.9 580.653Z" fill="white" stroke="black" stroke-width="4.56583" stroke-linecap="square" stroke-dasharray="3.96 10.54"/>
<path d="M832.868 855.939C810.362 856.469 775.146 846.41 776.205 792.408C777.264 736.289 813.539 729.936 830.485 729.406C853.256 729.142 882.647 737.877 883.971 786.055C885.559 849.586 854.845 855.41 832.868 855.939ZM836.045 813.321C837.899 816.232 842.4 815.174 841.871 805.644C841.341 796.644 842.135 786.32 842.135 772.025C842.135 763.554 836.31 764.084 834.986 768.849C833.662 773.084 832.339 782.349 832.603 790.026C832.868 803.261 833.398 809.35 836.045 813.321ZM941.958 940.913C918.392 942.501 918.657 922.118 922.629 896.705C925.541 878.44 928.983 849.851 930.572 835.027C932.955 813.585 923.688 823.115 912.832 822.85C902.505 822.586 899.593 813.85 899.063 802.203C898.269 786.32 907.271 780.231 912.567 780.761C919.187 781.555 921.57 784.996 927.66 783.408C934.809 781.555 928.984 758.79 925.541 728.612C923.688 713.259 930.572 705.582 948.312 705.582C970.554 705.582 978.233 711.67 976.379 737.083C975.055 756.937 968.436 786.32 968.436 814.115C968.436 835.292 969.76 869.175 977.703 897.235C984.587 921.324 970.289 939.06 941.958 940.913Z" fill="white" stroke="black" stroke-width="4.598" stroke-linecap="square" stroke-dasharray="3.8 10.12"/>
<path d="M563.433 812.922C544.008 807.86 539.75 794.274 542.943 777.225C545.338 764.172 547.733 748.721 547.999 742.327C548.265 734.336 544.274 726.344 549.064 721.549C555.716 714.623 561.837 717.02 573.545 717.02C583.125 717.02 603.881 714.356 614.259 713.291C631.29 711.692 646.192 709.295 648.321 725.278C649.917 737.266 648.321 754.315 633.951 757.245C608.405 762.573 587.915 748.188 586.584 762.307C585.254 777.491 598.027 778.29 610.268 776.692C635.016 773.495 643.265 760.975 649.385 763.372C656.57 766.303 661.094 798.536 645.394 808.393C627.032 819.848 585.52 818.782 563.433 812.922ZM662.424 897.635C644.063 896.303 627.831 890.708 609.203 890.176C581.262 889.376 584.189 889.643 549.33 894.438C518.728 898.7 508.083 896.036 505.688 866.999C503.293 838.229 518.728 845.422 528.307 845.954C538.419 846.487 579.4 854.479 582.061 848.618C585.254 841.692 580.198 841.426 580.198 835.032C580.198 828.639 591.374 824.11 604.68 823.844C613.195 823.577 626.234 826.508 626.5 833.967C626.766 842.225 618.517 846.221 622.775 851.549C627.298 857.143 657.901 848.085 674.665 846.754C685.309 845.954 693.027 848.085 697.284 853.413L699.413 834.499C704.469 790.811 702.606 763.905 697.284 736.467C693.825 718.885 694.623 710.893 709.791 706.897C728.951 701.836 751.57 707.696 749.973 725.012C747.844 746.856 738.53 788.413 737.998 817.184C737.466 854.479 740.659 879.786 746.78 899.233C753.698 920.544 747.844 936.528 720.169 941.589C699.679 945.319 691.696 936.262 692.228 913.085C692.494 905.094 692.76 897.901 693.559 889.376C686.64 897.635 675.464 898.7 662.424 897.635Z" fill="white" stroke="black" stroke-width="4.598" stroke-linecap="square" stroke-dasharray="3.8 10.12"/>
<path d="M372.981 826.602C362.635 827.134 359.452 821.556 359.452 807.746C359.452 794.467 357.86 778.001 353.615 778.001C348.84 778.001 350.167 780.125 350.697 788.358C351.758 801.903 344.596 819.697 330.271 824.743C312.497 831.117 278.54 824.743 273.765 807.48C267.664 785.703 293.131 774.282 300.559 770.299C307.456 766.58 316.476 762.597 316.476 757.551C316.476 749.583 297.375 755.16 286.234 748.786C277.745 744.006 279.071 729.399 285.438 720.634C291.805 711.87 306.926 716.12 331.066 716.651C350.963 717.182 369.798 715.323 378.817 715.323C385.715 715.323 391.816 728.336 388.367 741.35C385.715 751.177 370.859 752.77 375.369 760.206C379.348 766.58 418.61 761.269 413.039 791.811C408.264 818.369 383.858 826.071 372.981 826.602ZM446.464 873.345C426.037 873.08 417.018 858.207 419.936 844.662C423.65 826.868 427.629 815.448 426.833 795.264C425.772 769.767 421.528 747.724 417.283 721.166C414.63 705.762 422.324 694.607 449.382 697.263C466.095 698.857 472.197 704.168 469.544 718.244C465.83 735.773 462.381 755.692 463.177 762.862C463.973 768.971 479.094 763.393 484.93 762.597C495.541 761.003 503.235 763.659 502.704 781.984C502.174 794.998 496.603 801.903 484.665 800.31C477.237 799.247 466.095 793.139 463.708 800.575C461.851 807.215 467.422 844.928 468.217 851.567C469.544 865.909 463.973 873.345 446.464 873.345ZM440.097 970.815C415.691 972.408 400.57 954.083 410.916 941.069C418.079 932.039 425.772 933.102 423.385 927.259C419.671 918.494 395.53 936.554 369.532 939.741C341.678 943.194 324.965 930.446 327.087 909.73C329.209 888.749 347.249 881.047 378.021 879.454C407.998 877.86 439.036 880.25 452.831 888.749C464.503 895.92 471.136 911.855 466.36 926.728C463.708 934.961 454.953 943.725 459.463 947.974C462.116 950.63 465.83 946.912 468.483 949.302C471.931 952.224 465.83 969.221 440.097 970.815Z" fill="white" stroke="black" stroke-width="4.598" stroke-linecap="square" stroke-dasharray="3.8 10.12"/>
<path d="M129.852 861.214C109.611 861.786 99.4905 849.201 98.9122 832.613C98.0447 810.59 111.924 787.137 96.5989 787.137C78.0927 787.137 100.936 852.92 72.0203 858.068C34.1404 864.36 13.8993 822.602 31.8272 795.145C41.6586 780.273 59.5865 759.68 59.5865 749.669C59.5865 738.801 51.2009 734.797 59.5865 726.789C65.3697 721.64 105.274 721.64 117.997 725.931C128.985 729.077 133.033 735.655 135.057 748.811C138.238 765.972 135.346 776.555 146.624 784.849C157.033 792.285 163.973 789.711 169.467 790.855C174.672 792.285 172.937 807.444 171.202 820.028C169.467 834.329 160.792 860.642 129.852 861.214ZM218.046 955.026C195.781 959.03 187.106 949.305 187.684 924.422C188.262 902.113 190.576 883.237 195.491 840.049C200.986 793.143 198.961 764.256 193.178 734.797C189.419 715.92 190.287 707.34 206.769 703.05C227.588 697.615 252.167 703.908 250.432 722.498C248.119 745.951 237.998 790.569 237.42 821.458C236.841 861.5 240.311 888.671 246.962 909.55C254.48 932.431 248.119 949.591 218.046 955.026Z" fill="white" stroke="black" stroke-width="4.598" stroke-linecap="square" stroke-dasharray="3.8 10.12"/>
<mask id="path-19-outside-1_5294_440" maskUnits="userSpaceOnUse" x="1041.19" y="871.605" width="192" height="56" fill="black">
<rect fill="white" x="1041.19" y="871.605" width="192" height="56"/>
<path d="M1055.19 881.605C1064.19 874.005 1076.59 874.405 1087.59 884.805C1097.39 894.205 1092.99 910.805 1084.39 917.605C1076.99 924.005 1065.59 926.605 1052.39 914.805C1043.39 906.605 1043.59 892.005 1055.19 881.605ZM1123.11 881.605C1132.11 874.005 1144.51 874.405 1155.51 884.805C1165.31 894.205 1160.91 910.805 1152.31 917.605C1144.91 924.005 1133.51 926.605 1120.31 914.805C1111.31 906.605 1111.51 892.005 1123.11 881.605ZM1191.03 881.605C1200.03 874.005 1212.43 874.405 1223.43 884.805C1233.23 894.205 1228.83 910.805 1220.23 917.605C1212.83 924.005 1201.43 926.605 1188.23 914.805C1179.23 906.605 1179.43 892.005 1191.03 881.605Z"/>
</mask>
<path d="M1055.19 881.605C1064.19 874.005 1076.59 874.405 1087.59 884.805C1097.39 894.205 1092.99 910.805 1084.39 917.605C1076.99 924.005 1065.59 926.605 1052.39 914.805C1043.39 906.605 1043.59 892.005 1055.19 881.605ZM1123.11 881.605C1132.11 874.005 1144.51 874.405 1155.51 884.805C1165.31 894.205 1160.91 910.805 1152.31 917.605C1144.91 924.005 1133.51 926.605 1120.31 914.805C1111.31 906.605 1111.51 892.005 1123.11 881.605ZM1191.03 881.605C1200.03 874.005 1212.43 874.405 1223.43 884.805C1233.23 894.205 1228.83 910.805 1220.23 917.605C1212.83 924.005 1201.43 926.605 1188.23 914.805C1179.23 906.605 1179.43 892.005 1191.03 881.605Z" fill="white"/>
<path d="M1055.19 881.605L1053.96 880.155L1053.94 880.173L1053.92 880.192L1055.19 881.605ZM1087.59 884.805L1088.9 883.435L1088.89 883.426L1087.59 884.805ZM1084.39 917.605L1083.21 916.116L1083.18 916.142L1083.15 916.169L1084.39 917.605ZM1052.39 914.805L1051.11 916.209L1051.12 916.215L1051.12 916.221L1052.39 914.805ZM1052.6 881.441L1051.25 882.78L1053.93 885.472L1055.28 884.133L1052.6 881.441ZM1050.24 890.982L1051.09 889.287L1047.7 887.576L1046.84 889.271L1050.24 890.982ZM1045.41 892.683L1044.8 894.481L1048.4 895.7L1049.01 893.902L1045.41 892.683ZM1048.01 902.124L1047.82 900.234L1044.04 900.602L1044.23 902.492L1048.01 902.124ZM1044.92 906.193L1045.42 908.022L1049.08 907.003L1048.57 905.173L1044.92 906.193ZM1052.56 912.305L1051.27 910.911L1048.48 913.489L1049.77 914.883L1052.56 912.305ZM1052.4 917.322L1053.85 918.539L1056.29 915.622L1054.83 914.406L1052.4 917.322ZM1061.62 918.896L1059.91 918.065L1058.25 921.479L1059.96 922.31L1061.62 918.896ZM1063.17 923.641L1064.96 924.256L1066.19 920.662L1064.4 920.048L1063.17 923.641ZM1072.11 921.071L1070.21 921.23L1070.53 925.014L1072.43 924.855L1072.11 921.071ZM1075.93 924.26L1077.77 923.786L1076.82 920.109L1074.98 920.582L1075.93 924.26ZM1081.98 917.113L1080.47 918.262L1082.77 921.286L1084.28 920.137L1081.98 917.113ZM1086.96 917.882L1088.34 916.574L1085.72 913.821L1084.35 915.129L1086.96 917.882ZM1089.03 908.43L1088.24 910.154L1091.69 911.744L1092.48 910.019L1089.03 908.43ZM1093.78 906.667L1094.35 904.856L1090.73 903.71L1090.16 905.52L1093.78 906.667ZM1091.24 897.381L1091.35 899.277L1095.14 899.064L1095.03 897.168L1091.24 897.381ZM1094.54 893.539L1094.13 891.685L1090.42 892.506L1090.83 894.36L1094.54 893.539ZM1087.31 887.267L1088.55 888.703L1091.42 886.219L1090.18 884.782L1087.31 887.267ZM1087.62 882.272L1086.19 881.024L1083.69 883.887L1085.13 885.135L1087.62 882.272ZM1078.33 880.563L1080.04 881.392L1081.7 877.975L1079.99 877.146L1078.33 880.563ZM1076.74 875.81L1074.94 875.2L1073.72 878.796L1075.52 879.406L1076.74 875.81ZM1067.68 878.33L1069.58 878.2L1069.32 874.411L1067.42 874.541L1067.68 878.33ZM1063.88 875.073L1062.03 875.505L1062.9 879.203L1064.75 878.771L1063.88 875.073ZM1057.6 882.12L1059.13 880.995L1056.88 877.936L1055.35 879.061L1057.6 882.12ZM1053.92 880.192C1053.46 880.601 1053.02 881.018 1052.6 881.441L1055.28 884.133C1055.65 883.757 1056.05 883.386 1056.46 883.019L1053.92 880.192ZM1046.84 889.271C1046.28 890.395 1045.8 891.535 1045.41 892.683L1049.01 893.902C1049.34 892.925 1049.75 891.95 1050.24 890.982L1046.84 889.271ZM1044.23 902.492C1044.35 903.75 1044.58 904.987 1044.92 906.193L1048.57 905.173C1048.3 904.183 1048.11 903.164 1048.01 902.124L1044.23 902.492ZM1049.77 914.883C1050.2 915.341 1050.64 915.783 1051.11 916.209L1053.67 913.402C1053.28 913.049 1052.91 912.683 1052.56 912.305L1049.77 914.883ZM1051.12 916.221C1051.55 916.602 1051.97 916.969 1052.4 917.322L1054.83 914.406C1054.44 914.081 1054.05 913.742 1053.65 913.39L1051.12 916.221ZM1059.96 922.31C1061.04 922.837 1062.11 923.279 1063.17 923.641L1064.4 920.048C1063.49 919.738 1062.57 919.357 1061.62 918.896L1059.96 922.31ZM1072.43 924.855C1073.63 924.754 1074.8 924.551 1075.93 924.26L1074.98 920.582C1074.05 920.822 1073.09 920.988 1072.11 921.071L1072.43 924.855ZM1084.28 920.137C1084.74 919.785 1085.19 919.419 1085.63 919.042L1083.15 916.169C1082.77 916.496 1082.38 916.811 1081.98 917.113L1084.28 920.137ZM1085.57 919.095C1086.05 918.715 1086.51 918.31 1086.96 917.882L1084.35 915.129C1083.98 915.481 1083.6 915.811 1083.21 916.116L1085.57 919.095ZM1092.48 910.019C1092.98 908.938 1093.42 907.816 1093.78 906.667L1090.16 905.52C1089.84 906.517 1089.47 907.491 1089.03 908.43L1092.48 910.019ZM1095.03 897.168C1094.96 895.951 1094.8 894.737 1094.54 893.539L1090.83 894.36C1091.05 895.347 1091.18 896.358 1091.24 897.381L1095.03 897.168ZM1090.18 884.782C1089.78 884.319 1089.36 883.87 1088.9 883.435L1086.27 886.176C1086.64 886.529 1086.99 886.893 1087.31 887.267L1090.18 884.782ZM1088.89 883.426C1088.47 883.027 1088.05 882.643 1087.62 882.272L1085.13 885.135C1085.51 885.472 1085.9 885.822 1086.28 886.185L1088.89 883.426ZM1079.99 877.146C1078.91 876.623 1077.83 876.178 1076.74 875.81L1075.52 879.406C1076.45 879.722 1077.39 880.107 1078.33 880.563L1079.99 877.146ZM1067.42 874.541C1066.23 874.623 1065.04 874.801 1063.88 875.073L1064.75 878.771C1065.71 878.546 1066.69 878.398 1067.68 878.33L1067.42 874.541ZM1055.35 879.061C1054.88 879.407 1054.42 879.772 1053.96 880.155L1056.41 883.056C1056.8 882.727 1057.2 882.415 1057.6 882.12L1055.35 879.061ZM1055.19 881.605L1052.74 878.704L1052.69 878.74L1052.65 878.778L1055.19 881.605ZM1087.59 884.805L1090.22 882.065L1090.21 882.055L1090.2 882.046L1087.59 884.805ZM1084.39 917.605L1082.03 914.626L1081.97 914.678L1081.9 914.733L1084.39 917.605ZM1052.39 914.805L1049.83 917.613L1049.84 917.625L1049.86 917.637L1052.39 914.805ZM1051.26 880.095L1048.57 882.773L1053.92 888.158L1056.62 885.479L1051.26 880.095ZM1051.93 891.837L1053.64 888.447L1046.86 885.025L1045.15 888.416L1051.93 891.837ZM1043.61 892.073L1042.39 895.669L1049.59 898.108L1050.81 894.512L1043.61 892.073ZM1049.9 901.94L1049.53 898.16L1041.97 898.897L1042.34 902.677L1049.9 901.94ZM1043.09 906.702L1044.11 910.361L1051.42 908.322L1050.4 904.664L1043.09 906.702ZM1053.96 911.016L1051.38 908.227L1045.8 913.384L1048.38 916.172L1053.96 911.016ZM1051.18 918.78L1054.1 921.213L1058.96 915.38L1056.05 912.948L1051.18 918.78ZM1062.45 917.189L1059.04 915.526L1055.71 922.355L1059.13 924.018L1062.45 917.189ZM1062.55 925.438L1066.15 926.667L1068.6 919.48L1065.01 918.251L1062.55 925.438ZM1071.95 919.179L1068.16 919.497L1068.8 927.066L1072.58 926.748L1071.95 919.179ZM1076.4 926.099L1080.08 925.151L1078.18 917.796L1074.51 918.744L1076.4 926.099ZM1080.83 915.601L1077.81 917.898L1082.4 923.947L1085.43 921.649L1080.83 915.601ZM1088.27 919.259L1091.02 916.643L1085.79 911.136L1083.04 913.752L1088.27 919.259ZM1087.31 907.635L1085.72 911.084L1092.62 914.263L1094.21 910.814L1087.31 907.635ZM1095.59 907.24L1096.74 903.619L1089.5 901.326L1088.35 904.947L1095.59 907.24ZM1089.34 897.487L1089.56 901.279L1097.14 900.854L1096.93 897.062L1089.34 897.487ZM1096.39 893.129L1095.57 889.421L1088.15 891.063L1088.98 894.771L1096.39 893.129ZM1085.87 888.509L1088.36 891.381L1094.1 886.413L1091.62 883.54L1085.87 888.509ZM1088.87 880.84L1086.01 878.345L1081.02 884.071L1083.88 886.566L1088.87 880.84ZM1077.5 882.271L1080.92 883.929L1084.24 877.095L1080.82 875.437L1077.5 882.271ZM1077.35 874.011L1073.76 872.792L1071.32 879.985L1074.91 881.205L1077.35 874.011ZM1067.81 880.225L1071.6 879.965L1071.08 872.387L1067.29 872.647L1067.81 880.225ZM1063.45 873.224L1059.75 874.089L1061.48 881.485L1065.18 880.619L1063.45 873.224ZM1058.72 883.65L1061.78 881.4L1057.28 875.281L1054.22 877.531L1058.72 883.65ZM1052.65 878.778C1052.17 879.209 1051.71 879.648 1051.26 880.095L1056.62 885.479C1056.97 885.127 1057.34 884.778 1057.72 884.433L1052.65 878.778ZM1045.15 888.416C1044.54 889.618 1044.03 890.839 1043.61 892.073L1050.81 894.512C1051.11 893.621 1051.48 892.727 1051.93 891.837L1045.15 888.416ZM1042.34 902.677C1042.47 904.043 1042.72 905.389 1043.09 906.702L1050.4 904.664C1050.16 903.781 1049.99 902.871 1049.9 901.94L1042.34 902.677ZM1048.38 916.172C1048.84 916.67 1049.32 917.15 1049.83 917.613L1054.95 911.998C1054.6 911.681 1054.27 911.354 1053.96 911.016L1048.38 916.172ZM1049.86 917.637C1050.3 918.032 1050.74 918.413 1051.18 918.78L1056.05 912.948C1055.67 912.637 1055.3 912.312 1054.92 911.974L1049.86 917.637ZM1059.13 924.018C1060.28 924.577 1061.42 925.049 1062.55 925.438L1065.01 918.251C1064.18 917.968 1063.33 917.617 1062.45 917.189L1059.13 924.018ZM1072.58 926.748C1073.9 926.637 1075.17 926.416 1076.4 926.099L1074.51 918.744C1073.68 918.957 1072.83 919.105 1071.95 919.179L1072.58 926.748ZM1085.43 921.649C1085.92 921.272 1086.41 920.881 1086.87 920.478L1081.9 914.733C1081.56 915.034 1081.2 915.324 1080.83 915.601L1085.43 921.649ZM1086.74 920.585C1087.27 920.168 1087.78 919.725 1088.27 919.259L1083.04 913.752C1082.71 914.066 1082.37 914.358 1082.03 914.626L1086.74 920.585ZM1094.21 910.814C1094.74 909.661 1095.2 908.465 1095.59 907.24L1088.35 904.947C1088.06 905.868 1087.71 906.768 1087.31 907.635L1094.21 910.814ZM1096.93 897.062C1096.85 895.748 1096.68 894.432 1096.39 893.129L1088.98 894.771C1089.17 895.653 1089.29 896.561 1089.34 897.487L1096.93 897.062ZM1091.62 883.54C1091.18 883.033 1090.71 882.54 1090.22 882.065L1084.96 887.546C1085.28 887.859 1085.59 888.18 1085.87 888.509L1091.62 883.54ZM1090.2 882.046C1089.76 881.63 1089.31 881.228 1088.87 880.84L1083.88 886.566C1084.25 886.886 1084.61 887.219 1084.98 887.565L1090.2 882.046ZM1080.82 875.437C1079.67 874.881 1078.52 874.406 1077.35 874.011L1074.91 881.205C1075.77 881.494 1076.63 881.849 1077.5 882.271L1080.82 875.437ZM1067.29 872.647C1065.99 872.736 1064.71 872.929 1063.45 873.224L1065.18 880.619C1066.04 880.418 1066.92 880.286 1067.81 880.225L1067.29 872.647ZM1054.22 877.531C1053.72 877.903 1053.22 878.294 1052.74 878.704L1057.64 884.507C1058 884.205 1058.36 883.919 1058.72 883.65L1054.22 877.531ZM1123.11 881.605L1121.88 880.155L1121.86 880.173L1121.84 880.192L1123.11 881.605ZM1155.51 884.805L1156.82 883.435L1156.81 883.426L1155.51 884.805ZM1152.31 917.605L1151.13 916.116L1151.1 916.142L1151.07 916.169L1152.31 917.605ZM1120.31 914.805L1119.03 916.209L1119.04 916.215L1119.04 916.221L1120.31 914.805ZM1120.52 881.441L1119.17 882.78L1121.85 885.472L1123.2 884.133L1120.52 881.441ZM1118.16 890.982L1119.01 889.287L1115.62 887.576L1114.77 889.271L1118.16 890.982ZM1113.33 892.683L1112.72 894.481L1116.32 895.7L1116.93 893.902L1113.33 892.683ZM1115.93 902.124L1115.74 900.234L1111.96 900.602L1112.15 902.492L1115.93 902.124ZM1112.84 906.193L1113.35 908.022L1117.01 907.003L1116.5 905.173L1112.84 906.193ZM1120.48 912.305L1119.19 910.911L1116.41 913.489L1117.69 914.883L1120.48 912.305ZM1120.32 917.322L1121.78 918.539L1124.21 915.622L1122.75 914.406L1120.32 917.322ZM1129.54 918.896L1127.84 918.065L1126.17 921.479L1127.88 922.31L1129.54 918.896ZM1131.09 923.641L1132.89 924.256L1134.12 920.662L1132.32 920.048L1131.09 923.641ZM1140.03 921.071L1138.14 921.23L1138.45 925.014L1140.35 924.855L1140.03 921.071ZM1143.85 924.26L1145.69 923.786L1144.74 920.109L1142.9 920.582L1143.85 924.26ZM1149.9 917.113L1148.39 918.262L1150.69 921.286L1152.2 920.137L1149.9 917.113ZM1154.88 917.882L1156.26 916.574L1153.64 913.821L1152.27 915.129L1154.88 917.882ZM1156.96 908.43L1156.16 910.154L1159.61 911.744L1160.4 910.019L1156.96 908.43ZM1161.7 906.667L1162.27 904.856L1158.65 903.71L1158.08 905.52L1161.7 906.667ZM1159.16 897.381L1159.27 899.277L1163.06 899.064L1162.95 897.168L1159.16 897.381ZM1162.46 893.539L1162.05 891.685L1158.34 892.506L1158.75 894.36L1162.46 893.539ZM1155.23 887.267L1156.47 888.703L1159.35 886.219L1158.1 884.782L1155.23 887.267ZM1155.54 882.272L1154.11 881.024L1151.62 883.887L1153.05 885.135L1155.54 882.272ZM1146.25 880.563L1147.96 881.392L1149.62 877.975L1147.91 877.146L1146.25 880.563ZM1144.66 875.81L1142.87 875.2L1141.65 878.796L1143.45 879.406L1144.66 875.81ZM1135.6 878.33L1137.5 878.2L1137.24 874.411L1135.34 874.541L1135.6 878.33ZM1131.81 875.073L1129.96 875.505L1130.82 879.203L1132.67 878.771L1131.81 875.073ZM1125.52 882.12L1127.05 880.995L1124.8 877.936L1123.27 879.061L1125.52 882.12ZM1121.84 880.192C1121.38 880.601 1120.94 881.018 1120.52 881.441L1123.2 884.133C1123.58 883.757 1123.97 883.386 1124.38 883.019L1121.84 880.192ZM1114.77 889.271C1114.2 890.395 1113.72 891.535 1113.33 892.683L1116.93 893.902C1117.26 892.925 1117.67 891.95 1118.16 890.982L1114.77 889.271ZM1112.15 902.492C1112.27 903.75 1112.5 904.987 1112.84 906.193L1116.5 905.173C1116.22 904.183 1116.03 903.164 1115.93 902.124L1112.15 902.492ZM1117.69 914.883C1118.12 915.341 1118.56 915.783 1119.03 916.209L1121.59 913.402C1121.2 913.049 1120.83 912.683 1120.48 912.305L1117.69 914.883ZM1119.04 916.221C1119.47 916.602 1119.89 916.969 1120.32 917.322L1122.75 914.406C1122.36 914.081 1121.97 913.742 1121.57 913.39L1119.04 916.221ZM1127.88 922.31C1128.96 922.837 1130.03 923.279 1131.09 923.641L1132.32 920.048C1131.41 919.738 1130.49 919.357 1129.54 918.896L1127.88 922.31ZM1140.35 924.855C1141.55 924.754 1142.72 924.551 1143.85 924.26L1142.9 920.582C1141.97 920.822 1141.02 920.988 1140.03 921.071L1140.35 924.855ZM1152.2 920.137C1152.66 919.785 1153.12 919.419 1153.55 919.042L1151.07 916.169C1150.69 916.496 1150.3 916.811 1149.9 917.113L1152.2 920.137ZM1153.49 919.095C1153.97 918.715 1154.43 918.31 1154.88 917.882L1152.27 915.129C1151.9 915.481 1151.52 915.811 1151.13 916.116L1153.49 919.095ZM1160.4 910.019C1160.9 908.938 1161.34 907.816 1161.7 906.667L1158.08 905.52C1157.77 906.517 1157.39 907.491 1156.96 908.43L1160.4 910.019ZM1162.95 897.168C1162.89 895.951 1162.72 894.737 1162.46 893.539L1158.75 894.36C1158.97 895.347 1159.11 896.358 1159.16 897.381L1162.95 897.168ZM1158.1 884.782C1157.7 884.319 1157.28 883.87 1156.82 883.435L1154.19 886.176C1154.56 886.529 1154.91 886.893 1155.23 887.267L1158.1 884.782ZM1156.81 883.426C1156.39 883.027 1155.97 882.643 1155.54 882.272L1153.05 885.135C1153.43 885.472 1153.82 885.822 1154.2 886.185L1156.81 883.426ZM1147.91 877.146C1146.83 876.623 1145.75 876.178 1144.66 875.81L1143.45 879.406C1144.38 879.722 1145.31 880.107 1146.25 880.563L1147.91 877.146ZM1135.34 874.541C1134.15 874.623 1132.97 874.801 1131.81 875.073L1132.67 878.771C1133.63 878.546 1134.61 878.398 1135.6 878.33L1135.34 874.541ZM1123.27 879.061C1122.8 879.407 1122.34 879.772 1121.88 880.155L1124.33 883.056C1124.72 882.727 1125.12 882.415 1125.52 882.12L1123.27 879.061ZM1123.11 881.605L1120.66 878.704L1120.62 878.74L1120.57 878.778L1123.11 881.605ZM1155.51 884.805L1158.14 882.065L1158.13 882.055L1158.12 882.046L1155.51 884.805ZM1152.31 917.605L1149.95 914.626L1149.89 914.678L1149.83 914.733L1152.31 917.605ZM1120.31 914.805L1117.75 917.613L1117.76 917.625L1117.78 917.637L1120.31 914.805ZM1119.18 880.095L1116.49 882.773L1121.84 888.158L1124.54 885.479L1119.18 880.095ZM1119.85 891.837L1121.56 888.447L1114.78 885.025L1113.07 888.416L1119.85 891.837ZM1111.53 892.073L1110.32 895.669L1117.51 898.108L1118.73 894.512L1111.53 892.073ZM1117.82 901.94L1117.45 898.16L1109.89 898.897L1110.26 902.677L1117.82 901.94ZM1111.01 906.702L1112.03 910.361L1119.34 908.322L1118.32 904.664L1111.01 906.702ZM1121.88 911.016L1119.3 908.227L1113.72 913.384L1116.3 916.172L1121.88 911.016ZM1119.1 918.78L1122.02 921.213L1126.88 915.38L1123.97 912.948L1119.1 918.78ZM1130.37 917.189L1126.96 915.526L1123.63 922.355L1127.05 924.018L1130.37 917.189ZM1130.47 925.438L1134.07 926.667L1136.53 919.48L1132.93 918.251L1130.47 925.438ZM1139.87 919.179L1136.08 919.497L1136.72 927.066L1140.51 926.748L1139.87 919.179ZM1144.32 926.099L1148 925.151L1146.1 917.796L1142.43 918.744L1144.32 926.099ZM1148.76 915.601L1145.73 917.898L1150.33 923.947L1153.35 921.649L1148.76 915.601ZM1156.19 919.259L1158.94 916.643L1153.71 911.136L1150.96 913.752L1156.19 919.259ZM1155.23 907.635L1153.64 911.084L1160.54 914.263L1162.13 910.814L1155.23 907.635ZM1163.51 907.24L1164.66 903.619L1157.42 901.326L1156.27 904.947L1163.51 907.24ZM1157.27 897.487L1157.48 901.279L1165.06 900.854L1164.85 897.062L1157.27 897.487ZM1164.31 893.129L1163.49 889.421L1156.08 891.063L1156.9 894.771L1164.31 893.129ZM1153.8 888.509L1156.28 891.381L1162.02 886.413L1159.54 883.54L1153.8 888.509ZM1156.79 880.84L1153.93 878.345L1148.94 884.071L1151.8 886.566L1156.79 880.84ZM1145.42 882.271L1148.84 883.929L1152.16 877.095L1148.74 875.437L1145.42 882.271ZM1145.27 874.011L1141.68 872.792L1139.24 879.985L1142.84 881.205L1145.27 874.011ZM1135.73 880.225L1139.52 879.965L1139 872.387L1135.21 872.647L1135.73 880.225ZM1131.37 873.224L1127.68 874.089L1129.41 881.485L1133.1 880.619L1131.37 873.224ZM1126.65 883.65L1129.71 881.4L1125.21 875.281L1122.15 877.531L1126.65 883.65ZM1120.57 878.778C1120.09 879.209 1119.63 879.648 1119.18 880.095L1124.54 885.479C1124.89 885.127 1125.26 884.778 1125.64 884.433L1120.57 878.778ZM1113.07 888.416C1112.47 889.618 1111.95 890.839 1111.53 892.073L1118.73 894.512C1119.03 893.621 1119.4 892.727 1119.85 891.837L1113.07 888.416ZM1110.26 902.677C1110.39 904.043 1110.64 905.389 1111.01 906.702L1118.32 904.664C1118.08 903.781 1117.91 902.871 1117.82 901.94L1110.26 902.677ZM1116.3 916.172C1116.76 916.67 1117.24 917.15 1117.75 917.613L1122.87 911.998C1122.52 911.681 1122.19 911.354 1121.88 911.016L1116.3 916.172ZM1117.78 917.637C1118.22 918.032 1118.66 918.413 1119.1 918.78L1123.97 912.948C1123.59 912.637 1123.22 912.312 1122.84 911.974L1117.78 917.637ZM1127.05 924.018C1128.2 924.577 1129.34 925.049 1130.47 925.438L1132.93 918.251C1132.11 917.968 1131.25 917.617 1130.37 917.189L1127.05 924.018ZM1140.51 926.748C1141.82 926.637 1143.09 926.416 1144.32 926.099L1142.43 918.744C1141.6 918.957 1140.75 919.105 1139.87 919.179L1140.51 926.748ZM1153.35 921.649C1153.85 921.272 1154.33 920.881 1154.79 920.478L1149.83 914.733C1149.48 915.034 1149.12 915.324 1148.76 915.601L1153.35 921.649ZM1154.66 920.585C1155.19 920.168 1155.7 919.725 1156.19 919.259L1150.96 913.752C1150.63 914.066 1150.29 914.358 1149.95 914.626L1154.66 920.585ZM1162.13 910.814C1162.66 909.661 1163.12 908.465 1163.51 907.24L1156.27 904.947C1155.98 905.868 1155.63 906.768 1155.23 907.635L1162.13 910.814ZM1164.85 897.062C1164.78 895.748 1164.6 894.432 1164.31 893.129L1156.9 894.771C1157.09 895.653 1157.21 896.561 1157.27 897.487L1164.85 897.062ZM1159.54 883.54C1159.1 883.033 1158.63 882.54 1158.14 882.065L1152.88 887.546C1153.21 887.859 1153.51 888.18 1153.8 888.509L1159.54 883.54ZM1158.12 882.046C1157.68 881.63 1157.24 881.228 1156.79 880.84L1151.8 886.566C1152.17 886.886 1152.53 887.219 1152.9 887.565L1158.12 882.046ZM1148.74 875.437C1147.59 874.881 1146.44 874.406 1145.27 874.011L1142.84 881.205C1143.69 881.494 1144.55 881.849 1145.42 882.271L1148.74 875.437ZM1135.21 872.647C1133.92 872.736 1132.63 872.929 1131.37 873.224L1133.1 880.619C1133.97 880.418 1134.84 880.286 1135.73 880.225L1135.21 872.647ZM1122.15 877.531C1121.64 877.903 1121.14 878.294 1120.66 878.704L1125.56 884.507C1125.92 884.205 1126.28 883.919 1126.65 883.65L1122.15 877.531ZM1191.03 881.605L1189.81 880.155L1189.78 880.173L1189.76 880.192L1191.03 881.605ZM1223.43 884.805L1224.75 883.435L1224.74 883.426L1223.43 884.805ZM1220.23 917.605L1219.05 916.116L1219.02 916.142L1218.99 916.169L1220.23 917.605ZM1188.23 914.805L1186.95 916.209L1186.96 916.215L1186.97 916.221L1188.23 914.805ZM1188.44 881.441L1187.09 882.78L1189.77 885.472L1191.12 884.133L1188.44 881.441ZM1186.08 890.982L1186.93 889.287L1183.54 887.576L1182.69 889.271L1186.08 890.982ZM1181.25 892.683L1180.65 894.481L1184.24 895.7L1184.85 893.902L1181.25 892.683ZM1183.85 902.124L1183.67 900.234L1179.89 900.602L1180.07 902.492L1183.85 902.124ZM1180.76 906.193L1181.27 908.022L1184.93 907.003L1184.42 905.173L1180.76 906.193ZM1188.41 912.305L1187.12 910.911L1184.33 913.489L1185.62 914.883L1188.41 912.305ZM1188.24 917.322L1189.7 918.539L1192.13 915.622L1190.67 914.406L1188.24 917.322ZM1197.46 918.896L1195.76 918.065L1194.09 921.479L1195.8 922.31L1197.46 918.896ZM1199.01 923.641L1200.81 924.256L1202.04 920.662L1200.24 920.048L1199.01 923.641ZM1207.95 921.071L1206.06 921.23L1206.38 925.014L1208.27 924.855L1207.95 921.071ZM1211.77 924.26L1213.61 923.786L1212.66 920.109L1210.82 920.582L1211.77 924.26ZM1217.83 917.113L1216.31 918.262L1218.61 921.286L1220.12 920.137L1217.83 917.113ZM1222.81 917.882L1224.18 916.574L1221.57 913.821L1220.19 915.129L1222.81 917.882ZM1224.88 908.43L1224.08 910.154L1227.53 911.744L1228.33 910.019L1224.88 908.43ZM1229.62 906.667L1230.2 904.856L1226.58 903.71L1226 905.52L1229.62 906.667ZM1227.08 897.381L1227.19 899.277L1230.98 899.064L1230.88 897.168L1227.08 897.381ZM1230.38 893.539L1229.97 891.685L1226.26 892.506L1226.67 894.36L1230.38 893.539ZM1223.15 887.267L1224.4 888.703L1227.27 886.219L1226.03 884.782L1223.15 887.267ZM1223.47 882.272L1222.03 881.024L1219.54 883.887L1220.97 885.135L1223.47 882.272ZM1214.18 880.563L1215.88 881.392L1217.54 877.975L1215.83 877.146L1214.18 880.563ZM1212.59 875.81L1210.79 875.2L1209.57 878.796L1211.37 879.406L1212.59 875.81ZM1203.53 878.33L1205.42 878.2L1205.16 874.411L1203.27 874.541L1203.53 878.33ZM1199.73 875.073L1197.88 875.505L1198.74 879.203L1200.59 878.771L1199.73 875.073ZM1193.44 882.12L1194.97 880.995L1192.72 877.936L1191.19 879.061L1193.44 882.12ZM1189.76 880.192C1189.31 880.601 1188.87 881.018 1188.44 881.441L1191.12 884.133C1191.5 883.757 1191.89 883.386 1192.3 883.019L1189.76 880.192ZM1182.69 889.271C1182.12 890.395 1181.64 891.535 1181.25 892.683L1184.85 893.902C1185.18 892.925 1185.59 891.95 1186.08 890.982L1182.69 889.271ZM1180.07 902.492C1180.19 903.75 1180.42 904.987 1180.76 906.193L1184.42 905.173C1184.14 904.183 1183.95 903.164 1183.85 902.124L1180.07 902.492ZM1185.62 914.883C1186.04 915.341 1186.48 915.783 1186.95 916.209L1189.51 913.402C1189.12 913.049 1188.75 912.683 1188.41 912.305L1185.62 914.883ZM1186.97 916.221C1187.39 916.602 1187.82 916.969 1188.24 917.322L1190.67 914.406C1190.28 914.081 1189.89 913.742 1189.5 913.39L1186.97 916.221ZM1195.8 922.31C1196.88 922.837 1197.95 923.279 1199.01 923.641L1200.24 920.048C1199.34 919.738 1198.41 919.357 1197.46 918.896L1195.8 922.31ZM1208.27 924.855C1209.47 924.754 1210.64 924.551 1211.77 924.26L1210.82 920.582C1209.9 920.822 1208.94 920.988 1207.95 921.071L1208.27 924.855ZM1220.12 920.137C1220.59 919.785 1221.04 919.419 1221.47 919.042L1218.99 916.169C1218.61 916.496 1218.22 916.811 1217.83 917.113L1220.12 920.137ZM1221.41 919.095C1221.89 918.715 1222.35 918.31 1222.81 917.882L1220.19 915.129C1219.82 915.481 1219.44 915.811 1219.05 916.116L1221.41 919.095ZM1228.33 910.019C1228.82 908.938 1229.26 907.816 1229.62 906.667L1226 905.52C1225.69 906.517 1225.31 907.491 1224.88 908.43L1228.33 910.019ZM1230.88 897.168C1230.81 895.951 1230.65 894.737 1230.38 893.539L1226.67 894.36C1226.89 895.347 1227.03 896.358 1227.08 897.381L1230.88 897.168ZM1226.03 884.782C1225.63 884.319 1225.2 883.87 1224.75 883.435L1222.12 886.176C1222.49 886.529 1222.83 886.893 1223.15 887.267L1226.03 884.782ZM1224.74 883.426C1224.31 883.027 1223.89 882.643 1223.47 882.272L1220.97 885.135C1221.36 885.472 1221.74 885.822 1222.13 886.185L1224.74 883.426ZM1215.83 877.146C1214.76 876.623 1213.67 876.178 1212.59 875.81L1211.37 879.406C1212.3 879.722 1213.24 880.107 1214.18 880.563L1215.83 877.146ZM1203.27 874.541C1202.07 874.623 1200.89 874.801 1199.73 875.073L1200.59 878.771C1201.55 878.546 1202.53 878.398 1203.53 878.33L1203.27 874.541ZM1191.19 879.061C1190.72 879.407 1190.26 879.772 1189.81 880.155L1192.26 883.056C1192.65 882.727 1193.04 882.415 1193.44 882.12L1191.19 879.061ZM1191.03 881.605L1188.58 878.704L1188.54 878.74L1188.5 878.778L1191.03 881.605ZM1223.43 884.805L1226.06 882.065L1226.05 882.055L1226.04 882.046L1223.43 884.805ZM1220.23 917.605L1217.88 914.626L1217.81 914.678L1217.75 914.733L1220.23 917.605ZM1188.23 914.805L1185.67 917.613L1185.69 917.625L1185.7 917.637L1188.23 914.805ZM1187.1 880.095L1184.41 882.773L1189.77 888.158L1192.46 885.479L1187.1 880.095ZM1187.77 891.837L1189.49 888.447L1182.7 885.025L1180.99 888.416L1187.77 891.837ZM1179.46 892.073L1178.24 895.669L1185.43 898.108L1186.65 894.512L1179.46 892.073ZM1185.74 901.94L1185.37 898.16L1177.81 898.897L1178.18 902.677L1185.74 901.94ZM1178.93 906.702L1179.95 910.361L1187.27 908.322L1186.25 904.664L1178.93 906.702ZM1189.8 911.016L1187.22 908.227L1181.64 913.384L1184.22 916.172L1189.8 911.016ZM1187.02 918.78L1189.94 921.213L1194.81 915.38L1191.89 912.948L1187.02 918.78ZM1198.3 917.189L1194.88 915.526L1191.56 922.355L1194.97 924.018L1198.3 917.189ZM1198.4 925.438L1201.99 926.667L1204.45 919.48L1200.86 918.251L1198.4 925.438ZM1207.79 919.179L1204.01 919.497L1204.64 927.066L1208.43 926.748L1207.79 919.179ZM1212.24 926.099L1215.92 925.151L1214.03 917.796L1210.35 918.744L1212.24 926.099ZM1216.68 915.601L1213.65 917.898L1218.25 923.947L1221.27 921.649L1216.68 915.601ZM1224.11 919.259L1226.87 916.643L1221.64 911.136L1218.88 913.752L1224.11 919.259ZM1223.15 907.635L1221.56 911.084L1228.46 914.263L1230.05 910.814L1223.15 907.635ZM1231.43 907.24L1232.58 903.619L1225.34 901.326L1224.19 904.947L1231.43 907.24ZM1225.19 897.487L1225.4 901.279L1232.99 900.854L1232.77 897.062L1225.19 897.487ZM1232.24 893.129L1231.41 889.421L1224 891.063L1224.82 894.771L1232.24 893.129ZM1221.72 888.509L1224.2 891.381L1229.95 886.413L1227.46 883.54L1221.72 888.509ZM1224.71 880.84L1221.85 878.345L1216.86 884.071L1219.72 886.566L1224.71 880.84ZM1213.35 882.271L1216.76 883.929L1220.08 877.095L1216.66 875.437L1213.35 882.271ZM1213.2 874.011L1209.6 872.792L1207.16 879.985L1210.76 881.205L1213.2 874.011ZM1203.65 880.225L1207.44 879.965L1206.92 872.387L1203.14 872.647L1203.65 880.225ZM1199.29 873.224L1195.6 874.089L1197.33 881.485L1201.03 880.619L1199.29 873.224ZM1194.57 883.65L1197.63 881.4L1193.13 875.281L1190.07 877.531L1194.57 883.65ZM1188.5 878.778C1188.01 879.209 1187.55 879.648 1187.1 880.095L1192.46 885.479C1192.81 885.127 1193.18 884.778 1193.57 884.433L1188.5 878.778ZM1180.99 888.416C1180.39 889.618 1179.87 890.839 1179.46 892.073L1186.65 894.512C1186.95 893.621 1187.33 892.727 1187.77 891.837L1180.99 888.416ZM1178.18 902.677C1178.31 904.043 1178.56 905.389 1178.93 906.702L1186.25 904.664C1186 903.781 1185.83 902.871 1185.74 901.94L1178.18 902.677ZM1184.22 916.172C1184.68 916.67 1185.17 917.15 1185.67 917.613L1190.79 911.998C1190.44 911.681 1190.11 911.354 1189.8 911.016L1184.22 916.172ZM1185.7 917.637C1186.14 918.032 1186.58 918.413 1187.02 918.78L1191.89 912.948C1191.52 912.637 1191.14 912.312 1190.76 911.974L1185.7 917.637ZM1194.97 924.018C1196.12 924.577 1197.26 925.049 1198.4 925.438L1200.86 918.251C1200.03 917.968 1199.17 917.617 1198.3 917.189L1194.97 924.018ZM1208.43 926.748C1209.74 926.637 1211.02 926.416 1212.24 926.099L1210.35 918.744C1209.52 918.957 1208.67 919.105 1207.79 919.179L1208.43 926.748ZM1221.27 921.649C1221.77 921.272 1222.25 920.881 1222.72 920.478L1217.75 914.733C1217.4 915.034 1217.04 915.324 1216.68 915.601L1221.27 921.649ZM1222.59 920.585C1223.11 920.168 1223.62 919.725 1224.11 919.259L1218.88 913.752C1218.55 914.066 1218.22 914.358 1217.88 914.626L1222.59 920.585ZM1230.05 910.814C1230.58 909.661 1231.05 908.465 1231.43 907.24L1224.19 904.947C1223.9 905.868 1223.55 906.768 1223.15 907.635L1230.05 910.814ZM1232.77 897.062C1232.7 895.748 1232.52 894.432 1232.24 893.129L1224.82 894.771C1225.01 895.653 1225.14 896.561 1225.19 897.487L1232.77 897.062ZM1227.46 883.54C1227.02 883.033 1226.56 882.54 1226.06 882.065L1220.8 887.546C1221.13 887.859 1221.43 888.18 1221.72 888.509L1227.46 883.54ZM1226.04 882.046C1225.6 881.63 1225.16 881.228 1224.71 880.84L1219.72 886.566C1220.09 886.886 1220.46 887.219 1220.82 887.565L1226.04 882.046ZM1216.66 875.437C1215.52 874.881 1214.36 874.406 1213.2 874.011L1210.76 881.205C1211.61 881.494 1212.48 881.849 1213.35 882.271L1216.66 875.437ZM1203.14 872.647C1201.84 872.736 1200.55 872.929 1199.29 873.224L1201.03 880.619C1201.89 880.418 1202.76 880.286 1203.65 880.225L1203.14 872.647ZM1190.07 877.531C1189.56 877.903 1189.07 878.294 1188.58 878.704L1193.48 884.507C1193.84 884.205 1194.2 883.919 1194.57 883.65L1190.07 877.531Z" fill="black" mask="url(#path-19-outside-1_5294_440)"/>
</svg>
