<svg width="575" height="575" viewBox="0 0 575 575" fill="none" xmlns="http://www.w3.org/2000/svg">
<g filter="url(#filter0_d_5192_612)">
<g filter="url(#filter1_d_5192_612)">
<circle cx="287.316" cy="287.317" r="212.665" transform="rotate(27.8085 287.316 287.317)" fill="#00D9D2"/>
</g>
<path d="M143.47 348.418C124.566 338.391 122.779 321.008 125.108 301.756C127.237 282.098 130.294 262.572 132.249 243.029C134.681 226.011 135.449 200.675 151.899 191.257C157.214 188.367 163.93 187.645 170.888 187.895C202.549 190.107 234.099 194.891 265.69 197.236C295.314 199.558 324.774 204.085 354.268 207.616C368.852 209.39 383.481 211.112 397.734 214.834C413.093 219.496 436.664 224.75 446.573 237.887C460.055 257.587 448.17 297.352 443.974 319.678C440.408 337.451 437.264 355.389 435.592 373.466C434.349 392.877 427.956 401.136 407.669 400.845C366.514 400.653 325.903 393.494 286.254 382.296C276.831 379.712 267.369 377.239 257.7 375.766C236.237 372.45 213.516 373.807 192.414 367.449C175.826 362.326 159.2 356.526 143.72 348.587L143.425 348.432L143.47 348.418ZM158.034 234.646C149.26 238.304 149.054 255.068 147.477 264.1C146.358 272.228 145.201 280.355 144.038 288.46C141.415 305.302 138.101 324.241 154.123 334.12C158.205 336.855 162.957 338.892 167.595 340.68C184.851 347.396 202.777 352.698 221.324 354.213C236.593 355.652 252.038 356.076 267.145 358.858C291.77 363.579 315.855 371.04 340.604 375.168C355.205 377.871 369.967 380.021 384.809 381.16C391.805 381.731 399.949 381.949 406.03 378.786C414.45 374.584 417.219 364.471 418.816 355.58C422.214 336.159 425.35 316.487 429.829 297.054C431.798 287.852 433.863 278.251 434.485 268.921C435.314 258.198 432.445 250.052 420.186 253.168C376.011 266.565 334.538 288.676 289.985 301.253C270.534 306.852 256.339 298.407 241.595 286.572C225.642 274.419 209.113 263.07 192.738 251.503C183.841 246.134 168.486 231.703 158.259 234.576L158.071 234.646L158.034 234.646ZM175.583 212.599C173.934 216.012 179.66 220.385 182.728 223.112C205.253 240.216 228.547 256.504 251.501 273.045C265.179 283.435 279.332 287.668 295.948 281.832C324.415 272.082 352.645 261.531 380.956 251.398C387.752 248.951 406.015 242.068 390.65 236.594C374.912 231.826 357.517 231.238 341.117 228.619C297.852 221.415 254.11 217.583 210.597 213.066C202.552 212.768 180.855 207.788 175.652 212.504L175.598 212.606L175.583 212.599Z" fill="white"/>
</g>
<defs>
<filter id="filter0_d_5192_612" x="70.6094" y="74.6094" width="433.414" height="433.414" filterUnits="userSpaceOnUse" color-interpolation-filters="sRGB">
<feFlood flood-opacity="0" result="BackgroundImageFix"/>
<feColorMatrix in="SourceAlpha" type="matrix" values="0 0 0 0 0 0 0 0 0 0 0 0 0 0 0 0 0 0 127 0" result="hardAlpha"/>
<feOffset dy="4"/>
<feGaussianBlur stdDeviation="2"/>
<feComposite in2="hardAlpha" operator="out"/>
<feColorMatrix type="matrix" values="0 0 0 0 0 0 0 0 0 0 0 0 0 0 0 0 0 0 0.25 0"/>
<feBlend mode="normal" in2="BackgroundImageFix" result="effect1_dropShadow_5192_612"/>
<feBlend mode="normal" in="SourceGraphic" in2="effect1_dropShadow_5192_612" result="shape"/>
</filter>
<filter id="filter1_d_5192_612" x="71.193" y="74.6094" width="432.247" height="432.247" filterUnits="userSpaceOnUse" color-interpolation-filters="sRGB">
<feFlood flood-opacity="0" result="BackgroundImageFix"/>
<feColorMatrix in="SourceAlpha" type="matrix" values="0 0 0 0 0 0 0 0 0 0 0 0 0 0 0 0 0 0 127 0" result="hardAlpha"/>
<feOffset dy="3.41638"/>
<feGaussianBlur stdDeviation="1.70819"/>
<feComposite in2="hardAlpha" operator="out"/>
<feColorMatrix type="matrix" values="0 0 0 0 0 0 0 0 0 0 0 0 0 0 0 0 0 0 0.25 0"/>
<feBlend mode="normal" in2="BackgroundImageFix" result="effect1_dropShadow_5192_612"/>
<feBlend mode="normal" in="SourceGraphic" in2="effect1_dropShadow_5192_612" result="shape"/>
</filter>
</defs>
</svg>
