<svg width="990" height="998" viewBox="0 0 990 998" fill="none" xmlns="http://www.w3.org/2000/svg">
<path d="M509.903 996.826C384.161 1003.81 282.465 937.246 190.865 854.792C153.07 821.677 116.603 786.501 87.4423 745.34C1.15677 626.513 -9.47115 475.834 5.87293 334.199C17.4972 185.116 20.0214 148.211 158.849 79.521C362.108 -37.9764 671.779 -30.6619 843.62 137.705C894.501 186.246 916.886 252.343 936.482 319.237C983.311 471.977 1028.15 609.756 936.615 755.713C905.993 808.444 872.515 864.965 828.807 904.929C745.312 979.67 622.16 993.834 511.298 996.892H509.969L509.903 996.826ZM519.667 910.448C622.36 908.453 732.491 895.021 796.525 813.232C839.767 758.506 879.157 694.405 895.232 625.648C913.033 542.329 885.202 452.228 859.296 369.441C843.62 320.102 828.741 268.767 796.724 227.274C758.862 178.067 701.471 141.894 643.283 121.347C571.08 97.0758 493.164 98.2063 417.838 101.465C347.893 105.587 273.697 113.367 214.712 151.004C151.542 191.3 106.373 257.729 90.4315 331.007C67.9136 446.642 79.6708 573.582 142.176 675.919C172.532 725.059 214.114 764.158 257.29 801.728C334.741 871.283 413.72 915.435 518.339 910.515H519.667V910.448Z" fill="#28FFF8"/>
<path d="M523.301 727.127C465.826 725.798 393.304 699.482 354.922 656.087C323.168 622.329 332.913 552.751 389.658 566.374C439.641 584.118 476.168 645.122 538.084 630.303C558.7 625.851 577.195 613.224 590.718 594.75C614.252 567.903 634.404 482.111 677.758 492.743C708.915 508.559 703.347 556.34 693.867 585.447C669.339 656.951 601.391 725 524.494 727.127H523.234H523.301Z" fill="#28FFF8"/>
<path d="M731.61 302.857C732.083 336.807 696.077 363.648 663.179 352.752C631.362 343.849 613.595 304.784 626.768 275.551C651.29 220.209 732.15 244.658 731.677 301.529V302.857H731.61Z" fill="#28FFF8"/>
<path d="M305.031 297.544C356.544 296.476 383.304 364.548 338.615 394.313C311.721 413.2 268.771 402.855 255.391 372.223C238.799 338.721 266.496 296.943 303.693 297.61H305.031V297.544Z" fill="#28FFF8"/>
</svg>
